<?xml version="1.0" encoding="UTF-8" standalone="no"?>
<!DOCTYPE svg PUBLIC "-//W3C//DTD SVG 1.1//EN" "http://www.w3.org/Graphics/SVG/1.1/DTD/svg11.dtd">
<svg width="100%" height="100%" viewBox="0 0 138 135" version="1.1" xmlns="http://www.w3.org/2000/svg" xmlns:xlink="http://www.w3.org/1999/xlink" xml:space="preserve" style="fill-rule:evenodd;clip-rule:evenodd;stroke-linejoin:round;stroke-miterlimit:1.41421;">
    <g transform="matrix(1,0,0,1,-1444.95,-913.036)">
        <g transform="matrix(1,0,0,1,1221.74,606.254)">
            <g transform="matrix(1,0,0,1,-332.01,40.2403)">
                <circle cx="595.768" cy="277.443" r="10.901" style="fill:rgb(122,210,255);"/>
            </g>
        </g>
        <g transform="matrix(1,0,0,1,1221.74,606.254)">
            <g transform="matrix(1,0,0,1,-475.75,-158.933)">
                <path d="M698.954,596.525C698.954,597.321 699.27,598.084 699.832,598.646C700.395,599.209 701.158,599.525 701.954,599.525C703.926,599.525 706.497,599.525 708.469,599.525C709.265,599.525 710.028,599.209 710.591,598.646C711.153,598.084 711.469,597.321 711.469,596.525C711.469,580.633 711.469,506.409 711.469,490.517C711.469,489.722 711.153,488.959 710.591,488.396C710.028,487.833 709.265,487.517 708.469,487.517C706.497,487.517 703.926,487.517 701.954,487.517C701.158,487.517 700.395,487.833 699.832,488.396C699.27,488.959 698.954,489.722 698.954,490.517C698.954,506.409 698.954,580.633 698.954,596.525Z" style="fill:rgb(23,23,29);"/>
                <path d="M733.618,596.525C733.618,597.321 733.934,598.084 734.496,598.646C735.059,599.209 735.822,599.525 736.618,599.525C738.59,599.525 741.161,599.525 743.133,599.525C743.929,599.525 744.692,599.209 745.255,598.646C745.817,598.084 746.133,597.321 746.133,596.525C746.133,584.502 746.133,539.876 746.133,527.853C746.133,527.058 745.817,526.294 745.255,525.732C744.692,525.169 743.929,524.853 743.133,524.853C741.161,524.853 738.59,524.853 736.618,524.853C735.822,524.853 735.059,525.169 734.496,525.732C733.934,526.294 733.618,527.058 733.618,527.853C733.618,539.876 733.618,584.502 733.618,596.525Z" style="fill:rgb(23,23,29);"/>
                <path d="M769.758,596.525C769.758,597.321 770.074,598.084 770.637,598.646C771.2,599.209 771.963,599.525 772.758,599.525C774.731,599.525 777.302,599.525 779.274,599.525C780.07,599.525 780.833,599.209 781.395,598.646C781.958,598.084 782.274,597.321 782.274,596.525C782.274,584.017 782.274,536.666 782.274,536.666C782.274,536.666 788.087,536.666 791.79,536.666C792.585,536.666 793.348,536.35 793.911,535.787C794.473,535.224 794.79,534.461 794.79,533.666C794.79,531.885 794.79,529.634 794.79,527.853C794.79,527.058 794.473,526.294 793.911,525.732C793.348,525.169 792.585,524.853 791.79,524.853C788.087,524.853 782.274,524.853 782.274,524.853L782.274,520.775C782.274,509.977 785.682,502.587 793.034,500.43C794.301,500.064 795.173,498.904 795.173,497.586C795.211,495.661 795.211,492.93 795.211,490.798C795.212,489.919 794.826,489.083 794.157,488.513C793.487,487.943 792.601,487.695 791.733,487.835C778.265,490.161 769.758,502.852 769.758,520.634L769.758,524.853C769.758,524.853 768.434,524.853 767.063,524.853C765.406,524.853 764.063,526.196 764.063,527.853C764.063,529.634 764.063,531.885 764.063,533.666C764.063,535.323 765.406,536.666 767.063,536.666C768.434,536.666 769.758,536.666 769.758,536.666C769.758,536.666 769.758,584.017 769.758,596.525Z" style="fill:rgb(23,23,29);"/>
                <path d="M811.032,569.853C811.032,588.712 818.411,598.667 833.111,600.514C833.96,600.621 834.814,600.358 835.455,599.793C836.097,599.227 836.465,598.413 836.465,597.558C836.485,595.408 836.485,592.631 836.485,590.676C836.485,589.32 835.574,588.132 834.264,587.78C826.392,585.732 823.547,580.322 823.547,569.994L823.547,536.666C823.547,536.666 828.96,536.666 832.5,536.666C834.157,536.666 835.5,535.323 835.5,533.666C835.5,531.885 835.5,529.634 835.5,527.853C835.5,526.196 834.157,524.853 832.5,524.853C828.96,524.853 823.547,524.853 823.547,524.853C823.547,524.853 823.547,509.581 823.547,502.963C823.547,502.167 823.231,501.404 822.669,500.841C822.106,500.279 821.343,499.963 820.547,499.963C818.575,499.963 816.004,499.963 814.032,499.963C813.236,499.963 812.473,500.279 811.91,500.841C811.348,501.404 811.032,502.167 811.032,502.963C811.032,509.581 811.032,524.853 811.032,524.853C811.032,524.853 809.788,524.853 808.477,524.853C807.681,524.853 806.918,525.169 806.356,525.732C805.793,526.294 805.477,527.058 805.477,527.853C805.477,529.634 805.477,531.885 805.477,533.666C805.477,534.461 805.793,535.224 806.356,535.787C806.918,536.35 807.681,536.666 808.477,536.666C809.788,536.666 811.032,536.666 811.032,536.666L811.032,569.853Z" style="fill:rgb(23,23,29);"/>
            </g>
        </g>
    </g>
</svg>
